<?xml version="1.0" standalone="no"?>
<!DOCTYPE svg PUBLIC "-//W3C//DTD SVG 20010904//EN"
 "http://www.w3.org/TR/2001/REC-SVG-20010904/DTD/svg10.dtd">
<svg version="1.0" xmlns="http://www.w3.org/2000/svg"
 width="400.000000pt" height="158.000000pt" viewBox="0 0 400.000000 158.000000"
 preserveAspectRatio="xMidYMid meet">

<g transform="translate(0.000000,158.000000) scale(0.100000,-0.100000)"
fill="#0072bb" stroke="none">
<path d="M290 1414 c0 -5 22 -45 135 -239 29 -49 74 -128 101 -175 27 -46 54
-94 61 -105 7 -11 15 -27 19 -35 4 -8 21 -37 39 -65 17 -27 67 -113 110 -190
71 -124 80 -145 82 -195 1 -35 -5 -65 -15 -82 -9 -15 -14 -29 -11 -30 2 -2
124 -2 271 0 l267 3 -17 29 c-9 17 -20 30 -24 30 -5 0 -8 9 -8 20 0 11 -3 20
-8 20 -4 0 -16 16 -26 35 -11 19 -22 35 -25 35 -4 0 -15 17 -26 38 -17 32 -52
85 -78 117 -5 5 -54 80 -111 165 -56 85 -161 243 -233 350 -71 107 -142 214
-157 238 l-26 42 -160 0 c-88 0 -160 -3 -160 -6z"/>
<path d="M3485 1039 c-87 -13 -123 -28 -166 -66 -34 -31 -79 -116 -67 -128 3
-3 53 -11 112 -18 l107 -13 15 28 c20 38 73 59 137 53 62 -5 90 -31 85 -79 -3
-26 -10 -33 -53 -49 -27 -11 -102 -32 -165 -47 -63 -15 -131 -34 -150 -42 -80
-34 -117 -106 -107 -207 6 -60 24 -89 81 -135 35 -29 44 -31 133 -34 110 -5
159 10 224 64 23 19 45 32 50 29 5 -3 13 -24 19 -45 l11 -40 106 0 105 0 -7
28 c-4 15 -11 140 -15 277 -4 138 -11 263 -15 280 -5 16 -29 50 -54 75 -37 37
-57 48 -101 58 -79 17 -215 22 -285 11z m227 -434 c-4 -53 -23 -107 -44 -128
-23 -23 -80 -47 -110 -47 -102 0 -133 121 -44 167 50 26 159 62 181 60 18 -2
20 -8 17 -52z"/>
<path d="M1755 1014 c-16 -9 -43 -37 -60 -65 -16 -27 -33 -49 -37 -49 -4 0 -8
24 -10 53 l-3 52 -107 3 -108 3 0 -355 0 -355 89 -3 c49 -2 102 -1 117 2 l29
5 -3 110 c-4 133 12 305 33 345 29 57 55 72 113 68 l54 -3 25 60 c45 110 46
111 8 129 -41 20 -100 20 -140 0z"/>
<path d="M2391 1018 c-40 -11 -57 -22 -110 -71 -21 -20 -42 -33 -45 -30 -3 4
-6 25 -6 48 0 39 -2 43 -30 48 -16 4 -66 4 -110 0 l-80 -6 0 -354 0 -354 118
3 117 3 5 233 5 234 34 30 c29 26 39 30 74 25 22 -3 49 -15 61 -27 20 -20 21
-32 24 -260 l3 -240 115 0 114 0 0 195 c0 267 17 320 107 332 32 4 43 1 64
-21 15 -15 29 -40 33 -57 3 -18 6 -125 6 -240 l0 -209 115 0 115 0 0 259 c0
287 -7 341 -52 396 -43 51 -90 70 -173 69 -81 -1 -115 -15 -182 -77 -42 -39
-45 -40 -56 -22 -47 87 -157 125 -266 93z"/>
<path fill="#ed1b24" d="M137 833 c-11 -11 -8 -515 3 -508 5 3 17 21 26 40 9 19 20 35 25 35
5 0 9 5 9 11 0 6 9 23 20 37 167 220 238 295 328 349 23 14 39 29 36 34 -6 10
-437 13 -447 2z"/>
</g>
</svg>
